<?xml version="1.0" encoding="UTF-8"?>
<!-- Generated by jsxcad -->
<!DOCTYPE svg PUBLIC "-//W3C//DTD SVG 1.1 Tiny//EN" "http://www.w3.org/Graphics/SVG/1.1/DTD/svg11-tiny.dtd">
<svg baseProfile="tiny" height="10.000000000000007mm" width="10.000000000000007mm" viewBox="-5.0000000000000036 -5.0000000000000036 10.000000000000007 10.000000000000007" version="1.1" stroke="black" stroke-width=".1" fill="none" xmlns="http://www.w3.org/2000/svg">
<path fill="#000000" stroke="#000000" d="M2.792931927204815 -0.9153180126184767 L2.792931927204815 -0.9153180126184767 L2.792931927204815 -0.9153180126184767 L2.792931927204815 -0.9153180126184767 L2.975 0 L2.975 0 L2.792931927204815 -0.9153180126184767 z"/>
<path fill="#000000" stroke="#000000" d="M2.792931927204815 0.9153180126184767 L2.792931927204815 0.9153180126184767 L2.792931927204815 0.9153180126184767 L2.792931927204815 0.9153180126184767 L2.792931927204815 0.9153180126184767 L2.975 0 L2.975 0 z"/>
<path fill="#000000" stroke="#000000" d="M2.2050087673754066 1.951937594590324 L2.2050087673754066 1.951937594590324 L2.2050087673754066 1.951937594590324 L2.103642674029979 2.1036426740299783 L2.103642674029979 2.1036426740299783 L2.2050087673754066 1.951937594590324 L2.2050087673754066 1.951937594590324 z"/>
<path fill="#000000" stroke="#000000" d="M2.1036426740299787 2.1036426740299787 L2.1036426740299783 2.1036426740299787 L1.806360657345752 2.302280167015948 L1.33460801140668 2.617495207414342 L1.138483211286142 2.748541609221078 L1.138483211286142 2.748541609221078 L2.1036426740299787 2.1036426740299787 z"/>
<path fill="#000000" stroke="#000000" d="M0.6606103638253903 2.843596428615954 L1.138483211286142 2.748541609221078 L1.138483211286142 2.748541609221078 L0.6606103638253903 2.843596428615954 L0.6606103638253903 2.843596428615954 L0.6606103638253903 2.843596428615954 L0.6606103638253903 2.843596428615954 L0.6606103638253903 2.843596428615954 L0.6606103638253903 2.843596428615954 L0.6606103638253903 2.843596428615954 z"/>
<path fill="#000000" stroke="#000000" d="M-0.66061036382539 2.843596428615954 L-1.1384832112861418 2.748541609221078 L-1.1384832112861418 2.748541609221078 L-0.66061036382539 2.843596428615954 L-0.66061036382539 2.843596428615954 L-0.66061036382539 2.843596428615954 z"/>
<path fill="#000000" stroke="#000000" d="M-1.1384832112861418 2.748541609221078 L-1.3346080114066798 2.617495207414342 L-1.8063606573457516 2.302280167015948 L-2.1036426740299783 2.103642674029979 L-2.1036426740299783 2.103642674029979 L-1.1384832112861418 2.748541609221078 z"/>
<path fill="#000000" stroke="#000000" d="M-2.205008767375406 1.951937594590324 L-2.205008767375406 1.951937594590324 L-2.205008767375406 1.951937594590324 L-2.205008767375406 1.951937594590324 L-2.205008767375406 1.951937594590324 L-2.205008767375406 1.951937594590324 L-2.1036426740299787 2.1036426740299787 L-2.1036426740299787 2.1036426740299787 z"/>
<path fill="#000000" stroke="#000000" d="M-2.7929319272048145 0.9153180126184776 L-2.7929319272048145 0.9153180126184776 L-2.7929319272048145 0.9153180126184776 L-2.7929319272048145 0.9153180126184776 L-2.7929319272048145 0.9153180126184776 L-2.975 3.6433242274633755e-16 L-2.975 3.6433242274633755e-16 z"/>
<path fill="#000000" stroke="#000000" d="M-2.9749999999999996 3.643324227463375e-16 L-2.9749999999999996 3.643324227463375e-16 L-2.7929319272048145 -0.9153180126184808 L-2.7929319272048145 -0.9153180126184808 L-2.7929319272048145 -0.9153180126184808 L-2.7929319272048145 -0.9153180126184808 L-2.7929319272048145 -0.9153180126184808 z"/>
<path fill="#000000" stroke="#000000" d="M-0.6606103638253898 -2.8435964286159545 L-1.1384832112861412 -2.7485416092210784 L-1.1384832112861412 -2.7485416092210784 L-0.6606103638253898 -2.8435964286159545 L-0.6606103638253898 -2.8435964286159545 L-0.6606103638253898 -2.8435964286159545 L-0.6606103638253898 -2.8435964286159545 L-0.6606103638253898 -2.8435964286159545 L-0.6606103638253898 -2.8435964286159545 L-0.6606103638253898 -2.8435964286159545 z"/>
<path fill="#000000" stroke="#000000" d="M-2.103642674029979 -2.1036426740299787 L-2.1036426740299783 -2.103642674029979 L-1.8063606573457522 -2.3022801670159474 L-1.3346080114066798 -2.617495207414342 L-1.1384832112861412 -2.7485416092210784 L-1.1384832112861412 -2.7485416092210784 L-2.103642674029979 -2.1036426740299787 z"/>
<path fill="#000000" stroke="#000000" d="M-2.2050087673754066 -1.951937594590324 L-2.2050087673754066 -1.951937594590324 L-2.2050087673754066 -1.951937594590324 L-2.1036426740299796 -2.1036426740299783 L-2.1036426740299796 -2.1036426740299783 L-2.2050087673754066 -1.951937594590324 L-2.2050087673754066 -1.951937594590324 z"/>
<path fill="#000000" stroke="#000000" d="M0.6606103638253903 -2.843596428615954 L1.138483211286142 -2.748541609221078 L1.138483211286142 -2.748541609221078 L0.6606103638253903 -2.843596428615954 L0.6606103638253903 -2.843596428615954 L0.6606103638253903 -2.843596428615954 z"/>
<path fill="#000000" stroke="#000000" d="M1.138483211286142 -2.748541609221078 L1.33460801140668 -2.617495207414342 L1.8063606573457518 -2.302280167015948 L2.1036426740299787 -2.1036426740299787 L2.1036426740299787 -2.1036426740299787 L1.138483211286142 -2.748541609221078 z"/>
<path fill="#000000" stroke="#000000" d="M2.2050087673754066 -1.951937594590324 L2.103642674029979 -2.1036426740299783 L2.103642674029979 -2.1036426740299783 L2.2050087673754066 -1.951937594590324 L2.2050087673754066 -1.951937594590324 L2.2050087673754066 -1.951937594590324 L2.2050087673754066 -1.951937594590324 L2.2050087673754066 -1.951937594590324 z"/>
<path fill="#000000" stroke="#000000" d="M2.975 0 L2.792931927204815 0.9153180126184768 L2.792931927204815 1.6124999999999994 L2.205008767375406 1.951937594590324 L2.103642674029979 2.1036426740299783 L1.1384832112861423 2.7485416092210775 L0.6606103638253904 2.843596428615954 L1.9747429636251072e-16 3.2249999999999996 L-0.6606103638253901 2.843596428615954 L-1.138483211286142 2.7485416092210775 L-2.1036426740299787 2.1036426740299787 L-2.205008767375406 1.951937594590324 L-2.792931927204815 1.6124999999999994 L-2.7929319272048145 0.9153180126184776 L-2.975 3.6433242274633755e-16 L-2.7929319272048145 -0.9153180126184807 L-2.7929319272048145 -1.6125 L-2.2050087673754066 -1.9519375945903241 L-2.1036426740299796 -2.1036426740299783 L-1.1384832112861414 -2.748541609221078 L-0.6606103638253898 -2.8435964286159545 L1.9747429636251072e-16 -3.2249999999999996 L0.6606103638253904 -2.843596428615954 L1.1384832112861423 -2.7485416092210775 L2.103642674029979 -2.1036426740299783 L2.205008767375406 -1.951937594590324 L2.792931927204815 -1.6124999999999994 L2.792931927204815 -0.9153180126184768 M-0.5250000000000004 -1.60932667397366 L-0.8750000000000008 -1.515544456622767 L-1.0671633369868305 -1.323381119635937 L-1.1384832112861414 -1.2520612453366262 L-1.2593266739736608 -1.1312177826491068 L-1.387435565298214 -1.0031088913245536 L-1.5155444566227676 -0.8750000000000001 L-1.656217782649107 -0.3499999999999999 L-1.75 2.1431318985078676e-16 L-1.653044456622768 0.36184301395927804 L-1.6093266739736607 0.5249999999999999 L-1.5155444566227678 0.8749999999999998 L-1.1398874705820465 1.2506569860407208 L-1.1384832112861418 1.2520612453366256 L-1.1312177826491068 1.2593266739736606 L-0.8749999999999996 1.5155444566227676 L-0.6524585418485314 1.575174260616898 L-0.34999999999999976 1.6562177826491067 L-0.11036846184407817 1.720426859779014 L1.071565949253934e-16 1.7499999999999998 L1.9747429636251072e-16 1.7499999999999998 L0.5250000000000001 1.6093266739736605 L0.8750000000000002 1.5155444566227674 L1.0671633369868303 1.323381119635937 L1.2593266739736606 1.1312177826491068 L1.3874355652982142 1.0031088913245534 L1.5155444566227678 0.8749999999999998 L1.6562177826491071 0.3499999999999999 L1.75 0 L1.720426859779014 -0.1103684618440782 L1.6530444566227673 -0.3618430139592803 L1.6093266739736607 -0.5249999999999999 L1.5155444566227678 -0.8749999999999998 L1.1398874705820474 -1.25065698604072 L1.1312177826491072 -1.2593266739736604 L0.8750000000000002 -1.5155444566227674 L0.6524585418485316 -1.575174260616898 L0.35000000000000014 -1.6562177826491067 L1.9747429636251072e-16 -1.7499999999999998 L1.071565949253934e-16 -1.7499999999999998 z"/>
<path fill="#000000" stroke="#000000" d="M2.205008767375406 -1.9519375945903241 L2.205008767375406 -1.9519375945903241 L2.205008767375406 -1.9519375945903241 L2.205008767375406 -1.9519375945903241 L2.205008767375406 -1.9519375945903241 L2.205008767375406 -1.9519375945903241 L2.353051410505605 -1.8664651347275605 L2.7929319272048145 -1.6124999999999998 L2.7929319272048145 -1.6124999999999998 z"/>
<path fill="#000000" stroke="#000000" d="M1.9747429636251067e-16 -3.225 L1.9747429636251067e-16 -3.225 L0.6606103638253903 -2.843596428615954 L0.6606103638253903 -2.843596428615954 L0.6606103638253903 -2.843596428615954 L0.6606103638253903 -2.843596428615954 z"/>
<path fill="#000000" stroke="#000000" d="M2.792931927204815 -0.9153180126184768 L2.792931927204815 -1.6124999999999998 L2.792931927204815 -1.6124999999999998 L2.792931927204815 -1.6045106572381769 L2.792931927204815 -0.9153180126184768 L2.792931927204815 -0.9153180126184768 L2.792931927204815 -0.9153180126184768 L2.792931927204815 -0.9153180126184768 z"/>
<path fill="#000000" stroke="#000000" d="M2.792931927204815 0.9153180126184768 L2.792931927204815 0.9153180126184768 L2.792931927204815 0.9153180126184768 L2.792931927204815 0.9153180126184768 L2.792931927204815 1.6045106572381769 L2.792931927204815 1.6124999999999998 L2.792931927204815 1.6124999999999998 L2.792931927204815 0.9153180126184768 z"/>
<path fill="#000000" stroke="#000000" d="M-2.792931927204814 -1.6125000000000005 L-2.3530514105056044 -1.866465134727561 L-2.205008767375406 -1.9519375945903243 L-2.205008767375406 -1.9519375945903243 L-2.205008767375406 -1.9519375945903243 L-2.205008767375406 -1.9519375945903243 L-2.205008767375406 -1.9519375945903243 L-2.792931927204814 -1.6125000000000005 z"/>
<path fill="#000000" stroke="#000000" d="M-0.6606103638253897 -2.8435964286159545 L-0.6606103638253897 -2.8435964286159545 L-0.6606103638253897 -2.8435964286159545 L-0.6606103638253897 -2.8435964286159545 L-0.6606103638253897 -2.8435964286159545 L-0.6606103638253897 -2.8435964286159545 L-0.6606103638253897 -2.8435964286159545 L1.9747429636251067e-16 -3.2249999999999996 L1.9747429636251067e-16 -3.2249999999999996 L-0.6606103638253897 -2.8435964286159545 z"/>
<path fill="#000000" stroke="#000000" d="M0.6606103638253903 2.843596428615954 L0.6606103638253903 2.843596428615954 L0.6606103638253903 2.843596428615954 L0.6606103638253903 2.843596428615954 L0.6606103638253903 2.843596428615954 L0.6606103638253903 2.843596428615954 L0.6606103638253903 2.843596428615954 L0.6606103638253903 2.843596428615954 L1.974742963625107e-16 3.225 L1.974742963625107e-16 3.225 z"/>
<path fill="#000000" stroke="#000000" d="M2.205008767375406 1.9519375945903241 L2.205008767375406 1.9519375945903241 L2.205008767375406 1.9519375945903241 L2.7929319272048145 1.6124999999999998 L2.7929319272048145 1.6124999999999998 L2.3530514105056044 1.8664651347275605 L2.205008767375406 1.9519375945903241 L2.205008767375406 1.9519375945903241 z"/>
<path fill="#000000" stroke="#000000" d="M-2.7929319272048145 0.9153180126184776 L-2.7929319272048145 1.6124999999999996 L-2.7929319272048145 1.6124999999999996 L-2.7929319272048145 1.6045106572381767 L-2.7929319272048145 0.9153180126184776 L-2.7929319272048145 0.9153180126184776 L-2.7929319272048145 0.9153180126184776 L-2.7929319272048145 0.9153180126184776 z"/>
<path fill="#000000" stroke="#000000" d="M-2.7929319272048145 -0.9153180126184808 L-2.7929319272048145 -0.9153180126184808 L-2.7929319272048145 -0.9153180126184808 L-2.7929319272048145 -0.9153180126184808 L-2.7929319272048145 -1.6045106572381758 L-2.7929319272048145 -1.6125000000000003 L-2.7929319272048145 -1.6125000000000003 L-2.7929319272048145 -0.9153180126184808 z"/>
<path fill="#000000" stroke="#000000" d="M-2.2050087673754057 1.9519375945903243 L-2.2050087673754057 1.9519375945903243 L-2.2050087673754057 1.9519375945903243 L-2.2050087673754057 1.9519375945903243 L-2.2050087673754057 1.9519375945903243 L-2.3530514105056044 1.8664651347275605 L-2.7929319272048145 1.6124999999999998 L-2.7929319272048145 1.6124999999999998 L-2.2050087673754057 1.9519375945903243 z"/>
<path fill="#000000" stroke="#000000" d="M-0.6606103638253901 2.843596428615954 L-0.6606103638253901 2.843596428615954 L-0.6606103638253901 2.843596428615954 L-0.6606103638253901 2.843596428615954 L1.974742963625107e-16 3.2249999999999996 L1.974742963625107e-16 3.2249999999999996 z"/>
<path fill="#000000" stroke="#000000" d="M0.8750000000000001 -1.5155444566227676 L0.8750000000000001 -1.5155444566227676 L1.0715659492539339e-16 -1.75 L1.0715659492539339e-16 -1.75 L1.9747429636251067e-16 -1.7499999999999998 L0.3500000000000001 -1.656217782649107 L0.6524585418485315 -1.575174260616898 z"/>
<path fill="#000000" stroke="#000000" d="M1.5155444566227678 -0.8749999999999998 L1.5155444566227678 -0.8749999999999998 L0.8750000000000002 -1.5155444566227674 L0.8750000000000002 -1.5155444566227674 L1.1312177826491074 -1.2593266739736602 L1.1398874705820476 -1.25065698604072 z"/>
<path fill="#000000" stroke="#000000" d="M1.75 0 L1.75 0 L1.5155444566227678 -0.8749999999999998 L1.5155444566227678 -0.8749999999999998 L1.6093266739736607 -0.5249999999999998 L1.6530444566227673 -0.3618430139592803 L1.720426859779014 -0.11036846184407818 z"/>
<path fill="#000000" stroke="#000000" d="M1.0715659492539339e-16 1.75 L0.8750000000000001 1.5155444566227676 L0.8750000000000001 1.5155444566227676 L0.5250000000000001 1.6093266739736605 L1.9747429636251067e-16 1.7499999999999998 L1.0715659492539339e-16 1.75 z"/>
<path fill="#000000" stroke="#000000" d="M1.5155444566227678 0.8749999999999998 L1.75 0 L1.75 0 L1.6562177826491071 0.3499999999999999 L1.5155444566227678 0.8749999999999998 z"/>
<path fill="#000000" stroke="#000000" d="M1.0671633369868303 1.3233811196359373 L0.8750000000000002 1.5155444566227674 L0.8750000000000002 1.5155444566227674 L1.195272228311384 1.1952722283113837 L1.5155444566227678 0.8749999999999998 L1.5155444566227678 0.8749999999999998 L1.3874355652982144 1.0031088913245532 L1.2593266739736606 1.1312177826491068 z"/>
<path fill="#000000" stroke="#000000" d="M-0.11036846184407816 1.720426859779014 L-0.3499999999999997 1.6562177826491071 L-0.6524585418485314 1.5751742606168981 L-0.8749999999999994 1.5155444566227678 L-0.8749999999999994 1.5155444566227678 L1.0715659492539339e-16 1.7499999999999998 L1.0715659492539339e-16 1.7499999999999998 z"/>
<path fill="#000000" stroke="#000000" d="M-1.5155444566227676 -0.875 L-1.7499999999999998 2.1431318985078676e-16 L-1.7499999999999998 2.1431318985078676e-16 L-1.656217782649107 -0.3499999999999999 L-1.5155444566227676 -0.875 z"/>
<path fill="#000000" stroke="#000000" d="M-1.1384832112861416 1.2520612453366256 L-1.1398874705820463 1.250656986040721 L-1.5155444566227676 0.8749999999999999 L-1.5155444566227676 0.8749999999999999 L-0.8749999999999994 1.5155444566227678 L-0.8749999999999994 1.5155444566227678 L-1.1312177826491066 1.2593266739736606 z"/>
<path fill="#000000" stroke="#000000" d="M-1.75 2.1431318985078678e-16 L-1.5155444566227678 0.8749999999999997 L-1.5155444566227678 0.8749999999999997 L-1.6093266739736607 0.5249999999999999 L-1.653044456622768 0.3618430139592781 L-1.75 2.1431318985078678e-16 z"/>
<path fill="#000000" stroke="#000000" d="M-1.1384832112861414 -1.2520612453366262 L-1.0671633369868307 -1.323381119635937 L-0.8750000000000009 -1.5155444566227672 L-0.8750000000000009 -1.5155444566227672 L-1.195272228311384 -1.1952722283113837 L-1.5155444566227676 -0.8750000000000001 L-1.5155444566227676 -0.8750000000000001 L-1.387435565298214 -1.0031088913245536 L-1.2593266739736608 -1.1312177826491068 z"/>
<path fill="#000000" stroke="#000000" d="M1.0715659492539339e-16 -1.7499999999999998 L1.0715659492539339e-16 -1.7499999999999998 L-0.8750000000000007 -1.5155444566227674 L-0.8750000000000007 -1.5155444566227674 L-0.5250000000000004 -1.6093266739736602 z"/>
<path fill="#000000" stroke="#000000" d="M5 4.999999999999999 L-5 4.999999999999999 L-5 -4.999999999999999 L5 -4.999999999999999 M-2.792931927204815 1.6124999999999994 L-2.3530514105056044 1.8664651347275603 L-2.205008767375406 1.951937594590324 L-2.1036426740299787 2.1036426740299787 L-1.8063606573457516 2.302280167015948 L-1.33460801140668 2.6174952074143416 L-1.138483211286142 2.7485416092210775 L-0.6606103638253901 2.8435964286159536 L1.9747429636251072e-16 3.2249999999999996 L0.6606103638253904 2.8435964286159536 L1.1384832112861423 2.7485416092210775 L1.33460801140668 2.6174952074143416 L1.806360657345752 2.3022801670159474 L2.1036426740299787 2.1036426740299787 L2.103642674029979 2.1036426740299783 L2.205008767375406 1.951937594590324 L2.353051410505605 1.8664651347275603 L2.792931927204815 1.6124999999999994 L2.792931927204815 1.6045106572381767 L2.792931927204815 0.9153180126184767 L2.975 0 L2.792931927204815 -0.9153180126184767 L2.792931927204815 -1.6045106572381767 L2.792931927204815 -1.6124999999999994 L2.353051410505605 -1.8664651347275603 L2.205008767375406 -1.951937594590324 L2.103642674029979 -2.1036426740299783 L1.806360657345752 -2.3022801670159474 L1.33460801140668 -2.6174952074143416 L1.1384832112861423 -2.7485416092210775 L0.6606103638253904 -2.8435964286159536 L1.9747429636251072e-16 -3.2249999999999996 L-0.6606103638253898 -2.843596428615954 L-1.1384832112861414 -2.748541609221078 L-1.33460801140668 -2.6174952074143416 L-1.8063606573457525 -2.3022801670159474 L-2.1036426740299787 -2.1036426740299787 L-2.1036426740299796 -2.1036426740299783 L-2.2050087673754066 -1.9519375945903241 L-2.3530514105056044 -1.8664651347275605 L-2.7929319272048145 -1.6125000000000003 L-2.7929319272048145 -1.6045106572381758 L-2.7929319272048145 -0.9153180126184807 L-2.975 3.6433242274633755e-16 L-2.7929319272048145 0.9153180126184776 L-2.7929319272048145 1.6045106572381767 z"/>
<path fill="#000000" stroke="#000000" d="M5 4.999999999999999 L5 -4.999999999999999 L-5 -4.999999999999999 L-5 4.999999999999999 M0.8750000000000002 -1.5155444566227674 L1.5155444566227678 -0.8749999999999998 L1.75 0 L1.5155444566227678 0.8749999999999998 L1.1952722283113837 1.1952722283113835 L0.8750000000000002 1.5155444566227674 L1.071565949253934e-16 1.7499999999999998 L-0.8749999999999996 1.5155444566227676 L-1.5155444566227678 0.8749999999999998 L-1.75 2.1431318985078678e-16 L-1.5155444566227676 -0.8750000000000001 L-1.195272228311384 -1.1952722283113837 L-0.8750000000000008 -1.5155444566227672 L1.071565949253934e-16 -1.7499999999999998 z"/>
<path fill="#000000" stroke="#000000" d="M-5 5 L5 5 L5 5 L-5 5 z"/>
<path fill="#000000" stroke="#000000" d="M-5 -5 L-5 5 L-5 5 L-5 -5 z"/>
<path fill="#000000" stroke="#000000" d="M5 -5 L-5 -5 L-5 -5 L5 -5 z"/>
<path fill="#000000" stroke="#000000" d="M5 5 L5 -5 L5 -5 L5 5 z"/>
</svg>